<svg xmlns="http://www.w3.org/2000/svg" width="1280" height="460" viewBox="0 0 1280 460">
<style>
.title{font-family:'Architects Daughter','Comic Sans MS','Comic Neue',cursive;font-size:34px;font-weight:400;fill:#273043}
.subtitle,.axis,.legend,.note{font-family:'Comic Sans MS','Comic Neue','Chalkboard SE',cursive;fill:#6b7280;font-weight:400}
.label{font-family:'Comic Sans MS','Comic Neue','Chalkboard SE',cursive;fill:#273043;font-weight:400}
.value{font-family:'Comic Sans MS','Comic Neue','Chalkboard SE',cursive;fill:#273043;font-weight:400;font-size:18px}
.axis{font-size:16px}.legend{font-size:18px}.note{font-size:17px}.label{font-size:18px}
</style>
<rect width="1280" height="460" rx="0" fill="#f6f8fb"/>
<rect x="24" y="24" width="1232" height="412" rx="18" fill="#ffffff" stroke="#d7e3ee" stroke-width="2"/>
<text class="title" x="56" y="72">Lettuce Near Suspend Cache Latency</text><text class="subtitle" x="58" y="104" font-size="18">TTL path check</text><rect x="56" y="116" width="18" height="18" rx="5" fill="#8ecae6"/><text class="legend" x="82" y="131">ttlEnabled=false</text><rect x="266" y="116" width="18" height="18" rx="5" fill="#ffb3c7"/><text class="legend" x="292" y="131">ttlEnabled=true</text><text class="label" x="56" y="173">getLocalHit</text><rect x="285" y="142" width="11.633401570617252" height="18" rx="7" fill="#8ecae6"/><text class="value" x="306.63340157061725" y="157" font-size="16">8.41 us/op</text><rect x="285" y="166" width="11.5144676030622" height="18" rx="7" fill="#ffb3c7"/><text class="value" x="306.5144676030622" y="181" font-size="16">8.33 us/op</text><text class="label" x="56" y="247">putIfAbsentNewKey</text><rect x="285" y="216" width="662.6862376856288" height="18" rx="7" fill="#8ecae6"/><text class="value" x="957.6862376856288" y="231" font-size="16">479.2 us/op</text><rect x="285" y="240" width="709.8214285714286" height="18" rx="7" fill="#ffb3c7"/><text class="value" x="1004.8214285714286" y="255" font-size="16">513.3 us/op</text><text class="label" x="56" y="321">replaceWithExpectedValue</text><rect x="285" y="290" width="660.57308533186" height="18" rx="7" fill="#8ecae6"/><text class="value" x="955.57308533186" y="305" font-size="16">477.7 us/op</text><rect x="285" y="314" width="644.4450861501508" height="18" rx="7" fill="#ffb3c7"/><text class="value" x="939.4450861501508" y="329" font-size="16">466.0 us/op</text><text class="note" x="56" y="420">Lower is better.</text></svg>
